<svg id="Layer_1" viewBox="0 0 32 32" xmlns="http://www.w3.org/2000/svg" data-name="Layer 1"><path d="m24 29h-18a3 3 0 0 1 -3-3v-18a3 3 0 0 1 3-3h10a1 1 0 0 1 0 2h-10a1 1 0 0 0 -1 1v18a1 1 0 0 0 1 1h18a1 1 0 0 0 1-1v-10a1 1 0 0 1 2 0v10a3 3 0 0 1 -3 3z"/><path d="m14.818 22.425h-4.243a1 1 0 0 1 -1-1v-4.243a1 1 0 0 1 .293-.707l9.9-9.9a1 1 0 0 1 1.414 0l4.243 4.242a1 1 0 0 1 0 1.414l-9.9 9.9a1 1 0 0 1 -.707.294zm-3.243-2h2.825l8.9-8.9-2.825-2.825-8.9 8.9z"/><path d="m24.718 12.525a1 1 0 0 1 -.707-.293l-4.243-4.242a1 1 0 0 1 0-1.414l2.122-2.122a3.071 3.071 0 0 1 4.242 0l1.414 1.414a3 3 0 0 1 0 4.243l-2.121 2.121a1 1 0 0 1 -.707.293zm-2.829-5.242 2.829 2.828 1.414-1.411a1 1 0 0 0 0-1.415l-1.414-1.417a1.023 1.023 0 0 0 -1.413 0z"/></svg>